<svg xmlns="http://www.w3.org/2000/svg" width="256" height="256" viewBox="0 0 100 100"><rect width="100" height="100" rx="50" fill="#16423c"></rect><path fill="#fff" d="M2.91 62.63L2.91 62.63Q2.91 62.04 3.18 61.59Q3.46 61.15 4.07 61.15L4.07 61.15L6.31 61.15L16.98 37.06Q17.22 36.50 17.70 36.04Q18.18 35.58 18.96 35.58L18.96 35.58Q19.76 35.58 20.19 36.05Q20.62 36.53 20.86 37.13L20.86 37.13L30.54 61.15L33.41 61.15Q34.02 61.15 34.29 61.59Q34.56 62.04 34.56 62.63L34.56 62.63Q34.56 63.16 34.25 63.58Q33.94 63.99 33.38 63.99L33.38 63.99L22.99 63.99Q22.42 63.99 22.11 63.58Q21.79 63.16 21.79 62.63L21.79 62.63Q21.79 62.04 22.07 61.59Q22.34 61.15 22.95 61.15L22.95 61.15L26.48 61.15L24.10 54.85L12.42 54.85L9.89 61.15L12.88 61.15Q13.50 61.15 13.77 61.59Q14.04 62.04 14.04 62.63L14.04 62.63Q14.04 63.16 13.73 63.58Q13.41 63.99 12.85 63.99L12.85 63.99L4.10 63.99Q3.54 63.99 3.22 63.58Q2.91 63.16 2.91 62.63L2.91 62.63ZM18.46 39.83L13.41 52.37L23.18 52.37L18.46 39.83ZM57.45 37.85L57.45 37.85Q57.45 37.25 57.73 36.81Q58.00 36.37 58.61 36.37L58.61 36.37L66.62 36.37Q67.23 36.37 67.51 36.81Q67.78 37.25 67.78 37.85L67.78 37.85Q67.78 38.38 67.47 38.79Q67.15 39.20 66.59 39.20L66.59 39.20L63.91 39.20L56.89 63.36Q56.73 63.79 56.22 64.11Q55.71 64.42 55.12 64.42L55.12 64.42Q54.50 64.42 54.05 64.12Q53.60 63.83 53.52 63.23L53.52 63.23L49.36 45.70L44.58 63.36Q44.42 63.81 43.88 64.12Q43.34 64.42 42.74 64.42L42.74 64.42Q42.06 64.42 41.61 64.12Q41.16 63.81 41.05 63.16L41.05 63.16L34.88 39.20L32.24 39.20Q31.67 39.20 31.36 38.79Q31.06 38.38 31.06 37.85L31.06 37.85Q31.06 37.25 31.32 36.81Q31.59 36.37 32.20 36.37L32.20 36.37L40.23 36.37Q40.84 36.37 41.11 36.81Q41.39 37.25 41.39 37.85L41.39 37.85Q41.39 38.38 41.07 38.79Q40.76 39.20 40.20 39.20L40.20 39.20L38.68 39.20L43.26 57.85L48.48 39.20L46.99 39.20Q46.43 39.20 46.12 38.79Q45.80 38.38 45.80 37.85L45.80 37.85Q45.80 37.25 46.08 36.81Q46.35 36.37 46.96 36.37L46.96 36.37L52.67 36.37Q53.28 36.37 53.55 36.81Q53.83 37.25 53.83 37.85L53.83 37.85Q53.83 38.38 53.51 38.79Q53.20 39.20 52.63 39.20L52.63 39.20L51.02 39.20L55.50 57.52L60.59 39.20L58.64 39.20Q58.08 39.20 57.77 38.79Q57.45 38.38 57.45 37.85L57.45 37.85ZM86.54 49.50L86.78 53.53Q86.78 54.09 86.49 54.46Q86.20 54.82 85.65 54.82L85.65 54.82Q85.15 54.82 84.82 54.50Q84.49 54.17 84.36 53.72L84.36 53.72L83.54 50.73L78.16 50.73L78.16 61.15L92.39 61.15L94.26 55.83Q94.48 55.33 94.88 54.97Q95.29 54.61 95.91 54.61L95.91 54.61Q96.45 54.61 96.77 54.93Q97.09 55.25 97.09 55.80L97.09 55.80Q97.09 55.96 97.07 56.12Q97.04 56.28 96.99 56.43L96.99 56.43L95.98 62.73Q95.82 63.31 95.53 63.65Q95.24 63.99 94.66 63.99L94.66 63.99L69.84 63.99Q69.28 63.99 68.97 63.58Q68.65 63.16 68.65 62.63L68.65 62.63Q68.65 62.04 68.93 61.59Q69.20 61.15 69.81 61.15L69.81 61.15L74.40 61.15L74.40 39.20L71.45 39.20Q70.84 39.20 70.58 38.76Q70.31 38.32 70.31 37.72L70.31 37.72Q70.31 37.19 70.62 36.78Q70.92 36.37 71.49 36.37L71.49 36.37L94.00 36.37Q94.58 36.37 94.85 36.71Q95.13 37.06 95.32 37.63L95.32 37.63L96.87 42.73Q96.91 42.91 96.94 43.07Q96.96 43.23 96.96 43.36L96.96 43.36Q96.96 43.89 96.63 44.22Q96.30 44.55 95.79 44.55L95.79 44.55Q95.19 44.55 94.76 44.19Q94.34 43.83 94.13 43.33L94.13 43.33L92.39 39.20L78.16 39.20L78.16 48.40L83.54 48.40L84.36 45.41Q84.49 44.96 84.82 44.63Q85.15 44.31 85.65 44.31L85.65 44.31Q86.20 44.31 86.49 44.67Q86.78 45.04 86.78 45.60L86.78 45.60L86.54 49.50Z"></path></svg>